<mxfile host="app.diagrams.net" modified="2024-06-17T12:47:12.860Z" agent="Mozilla/5.0 (Macintosh; Intel Mac OS X 10_15_7) AppleWebKit/537.36 (KHTML, like Gecko) Chrome/125.0.0.0 Safari/537.36" etag="8mzeTUF0J8m9mH7s97r0" version="24.5.4" type="github">
  <diagram id="2f404044-711c-603c-8f00-f6bb4c023d3c" name="Page-1">
    <mxGraphModel dx="2225" dy="1200" grid="1" gridSize="10" guides="1" tooltips="1" connect="1" arrows="1" fold="1" page="1" pageScale="1" pageWidth="1169" pageHeight="827" background="none" math="0" shadow="0">
      <root>
        <mxCell id="0" />
        <mxCell id="1" parent="0" />
        <mxCell id="8QrCzLsz6JVdwn6ZM1bV-65" value="" style="shape=image;verticalLabelPosition=bottom;labelBackgroundColor=default;verticalAlign=top;aspect=fixed;imageAspect=0;image=https://www.peppershop.com/wp-content/uploads/2020/12/microsoft_dynamic_365.png;" vertex="1" parent="1">
          <mxGeometry x="340" y="60" width="290.75" height="110" as="geometry" />
        </mxCell>
        <mxCell id="8QrCzLsz6JVdwn6ZM1bV-75" value="" style="group" vertex="1" connectable="0" parent="1">
          <mxGeometry x="390" y="300" width="130" height="190" as="geometry" />
        </mxCell>
        <mxCell id="8QrCzLsz6JVdwn6ZM1bV-68" value="" style="shape=image;verticalLabelPosition=bottom;labelBackgroundColor=default;verticalAlign=top;aspect=fixed;imageAspect=0;image=https://upload.wikimedia.org/wikipedia/commons/thumb/c/c3/Python-logo-notext.svg/640px-Python-logo-notext.svg.png;" vertex="1" parent="8QrCzLsz6JVdwn6ZM1bV-75">
          <mxGeometry x="2.180000000000007" width="127.82" height="140" as="geometry" />
        </mxCell>
        <mxCell id="8QrCzLsz6JVdwn6ZM1bV-74" value="&lt;font style=&quot;font-size: 36px;&quot;&gt;Python&lt;/font&gt;" style="text;strokeColor=none;fillColor=none;align=left;verticalAlign=middle;spacingLeft=4;spacingRight=4;overflow=hidden;points=[[0,0.5],[1,0.5]];portConstraint=eastwest;rotatable=0;whiteSpace=wrap;html=1;" vertex="1" parent="8QrCzLsz6JVdwn6ZM1bV-75">
          <mxGeometry y="140" width="130" height="50" as="geometry" />
        </mxCell>
        <mxCell id="8QrCzLsz6JVdwn6ZM1bV-77" value="" style="group" vertex="1" connectable="0" parent="1">
          <mxGeometry x="870" y="460" width="190" height="220" as="geometry" />
        </mxCell>
        <mxCell id="8QrCzLsz6JVdwn6ZM1bV-63" value="" style="shape=image;verticalLabelPosition=bottom;labelBackgroundColor=default;verticalAlign=top;aspect=fixed;imageAspect=0;image=https://go.neo4j.com/rs/710-RRC-335/images/neo4j_logo_globe.png;" vertex="1" parent="8QrCzLsz6JVdwn6ZM1bV-77">
          <mxGeometry width="170" height="170" as="geometry" />
        </mxCell>
        <mxCell id="8QrCzLsz6JVdwn6ZM1bV-76" value="&lt;span style=&quot;color: rgb(0, 0, 0); font-family: Helvetica; font-size: 36px; font-style: normal; font-variant-ligatures: normal; font-variant-caps: normal; font-weight: 400; letter-spacing: normal; orphans: 2; text-align: left; text-indent: 0px; text-transform: none; widows: 2; word-spacing: 0px; -webkit-text-stroke-width: 0px; white-space: normal; background-color: rgb(251, 251, 251); text-decoration-thickness: initial; text-decoration-style: initial; text-decoration-color: initial; display: inline !important; float: none;&quot;&gt;Neo4j Browser&lt;/span&gt;" style="text;whiteSpace=wrap;html=1;" vertex="1" parent="8QrCzLsz6JVdwn6ZM1bV-77">
          <mxGeometry x="40" y="150" width="150" height="70" as="geometry" />
        </mxCell>
        <mxCell id="8QrCzLsz6JVdwn6ZM1bV-79" value="" style="group" vertex="1" connectable="0" parent="1">
          <mxGeometry x="890" width="180" height="220" as="geometry" />
        </mxCell>
        <mxCell id="8QrCzLsz6JVdwn6ZM1bV-71" value="" style="group" vertex="1" connectable="0" parent="8QrCzLsz6JVdwn6ZM1bV-79">
          <mxGeometry x="-17.019667170953102" y="9.166666666666666" width="180" height="184.92833333333334" as="geometry" />
        </mxCell>
        <mxCell id="8QrCzLsz6JVdwn6ZM1bV-97" style="edgeStyle=orthogonalEdgeStyle;rounded=0;orthogonalLoop=1;jettySize=auto;html=1;exitX=1;exitY=0.5;exitDx=0;exitDy=0;entryX=0;entryY=0.5;entryDx=0;entryDy=0;" edge="1" parent="8QrCzLsz6JVdwn6ZM1bV-71" source="8QrCzLsz6JVdwn6ZM1bV-69" target="8QrCzLsz6JVdwn6ZM1bV-70">
          <mxGeometry relative="1" as="geometry" />
        </mxCell>
        <mxCell id="8QrCzLsz6JVdwn6ZM1bV-69" value="" style="shape=image;verticalLabelPosition=bottom;labelBackgroundColor=default;verticalAlign=top;aspect=fixed;imageAspect=0;image=https://go.neo4j.com/rs/710-RRC-335/images/neo4j_logo_globe.png;" vertex="1" parent="8QrCzLsz6JVdwn6ZM1bV-71">
          <mxGeometry y="29.095000000000006" width="144.6671709531014" height="144.6671709531014" as="geometry" />
        </mxCell>
        <mxCell id="8QrCzLsz6JVdwn6ZM1bV-70" value="" style="shape=image;verticalLabelPosition=bottom;labelBackgroundColor=default;verticalAlign=top;aspect=fixed;imageAspect=0;image=https://e7.pngegg.com/pngimages/997/968/png-clipart-neo4j-graph-database-logo-query-language-hard-disc-miscellaneous-electronics-thumbnail.png;" vertex="1" parent="8QrCzLsz6JVdwn6ZM1bV-71">
          <mxGeometry x="128.49848714069594" y="36.666666666666664" width="52.35249621785175" height="59.56883509833586" as="geometry" />
        </mxCell>
        <mxCell id="8QrCzLsz6JVdwn6ZM1bV-78" value="&lt;span style=&quot;color: rgb(0, 0, 0); font-family: Helvetica; font-size: 36px; font-style: normal; font-variant-ligatures: normal; font-variant-caps: normal; font-weight: 400; letter-spacing: normal; orphans: 2; text-align: left; text-indent: 0px; text-transform: none; widows: 2; word-spacing: 0px; -webkit-text-stroke-width: 0px; white-space: normal; background-color: rgb(251, 251, 251); text-decoration-thickness: initial; text-decoration-style: initial; text-decoration-color: initial; display: inline !important; float: none;&quot;&gt;Neo4j Bloom&lt;/span&gt;" style="text;whiteSpace=wrap;html=1;" vertex="1" parent="8QrCzLsz6JVdwn6ZM1bV-79">
          <mxGeometry x="42.54916792738276" y="155.83333333333331" width="127.64750378214828" height="64.16666666666666" as="geometry" />
        </mxCell>
        <mxCell id="8QrCzLsz6JVdwn6ZM1bV-81" value="" style="shape=image;verticalLabelPosition=bottom;labelBackgroundColor=default;verticalAlign=top;aspect=fixed;imageAspect=0;image=https://miro.medium.com/v2/resize:fit:402/1*KTDZHTVaVbvbyhIf2PmBAw.png;clipPath=inset(15.72% 12% 7.6% 23.67%);" vertex="1" parent="1">
          <mxGeometry x="10" y="289.56" width="169.37751152073733" height="190.44" as="geometry" />
        </mxCell>
        <mxCell id="8QrCzLsz6JVdwn6ZM1bV-83" value="" style="endArrow=classic;html=1;rounded=0;strokeColor=default;shape=flexArrow;fillColor=#0066CC;entryX=-0.042;entryY=0.63;entryDx=0;entryDy=0;entryPerimeter=0;" edge="1" parent="1">
          <mxGeometry width="50" height="50" relative="1" as="geometry">
            <mxPoint x="179.37751152073724" y="350.0014855687298" as="sourcePoint" />
            <mxPoint x="386.8115600000001" y="352.43000000000006" as="targetPoint" />
          </mxGeometry>
        </mxCell>
        <mxCell id="8QrCzLsz6JVdwn6ZM1bV-86" value="" style="shape=flexArrow;endArrow=classic;startArrow=classic;html=1;rounded=0;entryX=0;entryY=1;entryDx=0;entryDy=0;fillColor=#0066CC;exitX=1;exitY=0;exitDx=0;exitDy=0;" edge="1" parent="1" source="8QrCzLsz6JVdwn6ZM1bV-81" target="8QrCzLsz6JVdwn6ZM1bV-65">
          <mxGeometry width="100" height="100" relative="1" as="geometry">
            <mxPoint x="290" y="260" as="sourcePoint" />
            <mxPoint x="390" y="160" as="targetPoint" />
          </mxGeometry>
        </mxCell>
        <mxCell id="8QrCzLsz6JVdwn6ZM1bV-90" value="" style="shape=image;verticalLabelPosition=bottom;labelBackgroundColor=default;verticalAlign=top;aspect=fixed;imageAspect=0;image=https://www.iconpacks.net/icons/2/free-csv-icon-1471-thumb.png;" vertex="1" parent="1">
          <mxGeometry x="240" y="360" width="70" height="70" as="geometry" />
        </mxCell>
        <mxCell id="8QrCzLsz6JVdwn6ZM1bV-91" value="" style="shape=image;verticalLabelPosition=bottom;labelBackgroundColor=default;verticalAlign=top;aspect=fixed;imageAspect=0;image=https://www.iconpacks.net/icons/2/free-csv-icon-1471-thumb.png;" vertex="1" parent="1">
          <mxGeometry x="620" y="470" width="70" height="70" as="geometry" />
        </mxCell>
        <mxCell id="8QrCzLsz6JVdwn6ZM1bV-95" value="" style="endArrow=classic;html=1;rounded=0;strokeColor=default;shape=flexArrow;fillColor=#0066CC;exitX=0.5;exitY=0;exitDx=0;exitDy=0;" edge="1" parent="1" source="8QrCzLsz6JVdwn6ZM1bV-63">
          <mxGeometry width="50" height="50" relative="1" as="geometry">
            <mxPoint x="960" y="470" as="sourcePoint" />
            <mxPoint x="955" y="290" as="targetPoint" />
          </mxGeometry>
        </mxCell>
        <mxCell id="8QrCzLsz6JVdwn6ZM1bV-96" value="" style="shape=flexArrow;endArrow=classic;startArrow=classic;html=1;rounded=0;fillColor=#0066CC;exitX=1;exitY=0.75;exitDx=0;exitDy=0;entryX=0;entryY=0.75;entryDx=0;entryDy=0;" edge="1" parent="1" source="8QrCzLsz6JVdwn6ZM1bV-65" target="8QrCzLsz6JVdwn6ZM1bV-69">
          <mxGeometry width="100" height="100" relative="1" as="geometry">
            <mxPoint x="640" y="230" as="sourcePoint" />
            <mxPoint x="860" y="140" as="targetPoint" />
          </mxGeometry>
        </mxCell>
        <mxCell id="8QrCzLsz6JVdwn6ZM1bV-98" value="" style="shape=flexArrow;endArrow=classic;startArrow=classic;html=1;rounded=0;entryX=0;entryY=0.75;entryDx=0;entryDy=0;fillColor=#0066CC;exitX=1;exitY=0.5;exitDx=0;exitDy=0;" edge="1" parent="1" source="8QrCzLsz6JVdwn6ZM1bV-68" target="8QrCzLsz6JVdwn6ZM1bV-63">
          <mxGeometry width="100" height="100" relative="1" as="geometry">
            <mxPoint x="520" y="390" as="sourcePoint" />
            <mxPoint x="681" y="270" as="targetPoint" />
          </mxGeometry>
        </mxCell>
      </root>
    </mxGraphModel>
  </diagram>
</mxfile>
